<?xml version="1.0" encoding="UTF-8" standalone="no"?>
<svg width="131px" height="124px" viewBox="0 0 131 124" version="1.1" xmlns="http://www.w3.org/2000/svg" xmlns:xlink="http://www.w3.org/1999/xlink">
    <!-- Generator: Sketch 40 (33762) - http://www.bohemiancoding.com/sketch -->
    <title>money_box</title>
    <desc>Created with Sketch.</desc>
    <defs></defs>
    <g id="Page-1" stroke="none" stroke-width="1" fill="none" fill-rule="evenodd">
        <g id="Landing-Page" transform="translate(-624.000000, -684.000000)">
            <g id="3-Icon-Section" transform="translate(178.000000, 681.000000)">
                <g id="Money-Icon" transform="translate(365.500000, 4.000000)">
                    <g id="money_box" transform="translate(82.000000, 0.000000)">
                        <g id="Layer_1">
                            <g id="Group" transform="translate(26.162791, 0.000000)" stroke="#00B9FF" stroke-width="2">
                                <path d="M37.7906977,19.5290698 C37.7906977,9.09302326 29.3226744,0.63372093 18.8953488,0.63372093 C8.4505814,0.63372093 0,9.09302326 0,19.5290698 C0,22.4563953 0.668604651,25.2122093 1.86627907,27.6686047" id="Shape"></path>
                            </g>
                            <path d="M123.18314,60.130814 L118.453488,60.130814 C115.988372,60.130814 114.819767,59.0348837 114.639535,57.9156977 C113.351744,49.8081395 108.084302,39.2732558 94.8459302,34.6511628 C94.7180233,27.3168605 96.3546512,22.0261628 99.5406977,13.4186047 C92.1366279,15.2761628 83.9563953,19.3081395 79.1133721,29.9883721 C73.6569767,28.6540698 67.8255814,27.9331395 61.7354651,27.9331395 C45.7906977,27.9331395 33.7645349,32.7703488 24.1366279,40.2645349 C15.4418605,47.0348837 9.97965116,58.372093 10.627907,73.8372093 C11.1162791,85.502907 19.2412791,94.4040698 25.4738372,99.3895349 C26.372093,100.098837 28.1627907,101.235465 27.2267442,104.133721 C26.2877907,107.026163 24.6017442,111.063953 24.6017442,111.063953 C23.619186,113.639535 24.9244186,116.531977 27.497093,117.511628 L36.8517442,121.046512 C39.4273256,122.02907 42.3197674,120.729651 43.2994186,118.151163 C43.2994186,118.151163 44.5436047,114.909884 45.5552326,112.206395 C47.4767442,107.125 48.6511628,111.247093 61.7354651,111.247093 C75.3313953,111.247093 76.7034884,108.59593 78.125,112.758721 C79.0348837,115.476744 80.1686047,118.151163 80.1686047,118.151163 C81.1395349,120.729651 84.0348837,122.02907 86.619186,121.046512 L95.9622093,117.511628 C98.5436047,116.531977 99.8517442,113.639535 98.8662791,111.063953 L97.3662791,107.09593 C97.3662791,107.09593 95.8401163,104.479651 99.1104651,102.703488 C105.627907,99.1569767 110.540698,93.7761628 113.726744,87.130814 C114.40407,85.7063953 115.40407,83.7703488 118.453488,83.7703488 L123.18314,83.7703488 C125.787791,83.7703488 127.906977,81.6511628 127.906977,79.0494186 L127.906977,64.8662791 C127.906977,62.2587209 125.787791,60.130814 123.18314,60.130814 L123.18314,60.130814 Z" id="Shape" stroke="#00B9FF" stroke-width="2"></path>
                            <path d="M97.3255814,68.5406977 C94.247093,68.5406977 91.755814,66.0494186 91.755814,62.9767442 C91.755814,59.9098837 94.247093,57.4186047 97.3255814,57.4186047 C100.395349,57.4186047 102.877907,59.9098837 102.877907,62.9767442 C102.880814,66.0465116 100.395349,68.5406977 97.3255814,68.5406977 L97.3255814,68.5406977 Z" id="Shape" fill="#00B9FF"></path>
                            <path d="M11.122093,57.4186047 C11.122093,57.4186047 0,54.872093 0,44.8401163 C0,40.7267442 2.0755814,36.9418605 5.70639535,35.375" id="Shape" stroke="#00B9FF" stroke-width="2"></path>
                        </g>
                    </g>
                </g>
            </g>
        </g>
    </g>
</svg>